<svg width="64" height="64" viewBox="0 0 64 64" fill="none" xmlns="http://www.w3.org/2000/svg">
<rect width="64" height="64" rx="12" fill="#9E5CF2" fill-opacity="0.05"/>
<path d="M33.25 23.25V24.0312C36.1016 24.6172 38.25 27.1172 38.25 30.125V30.8672C38.25 32.7031 38.9141 34.5 40.125 35.8672L40.3984 36.1797C40.75 36.5703 40.8281 37.0781 40.6328 37.5469C40.4375 37.9766 39.9688 38.25 39.5 38.25H24.5C23.9922 38.25 23.5234 37.9766 23.3281 37.5469C23.1328 37.0781 23.2109 36.5703 23.5625 36.1797L23.8359 35.8672C25.0469 34.5 25.75 32.7031 25.75 30.8672V30.125C25.75 27.1172 27.8594 24.6172 30.75 24.0312V23.25C30.75 22.5859 31.2969 22 32 22C32.6641 22 33.25 22.5859 33.25 23.25ZM32 42C31.3359 42 30.6719 41.7656 30.2031 41.2969C29.7344 40.8281 29.5 40.1641 29.5 39.5H34.5C34.5 40.1641 34.2266 40.8281 33.7578 41.2969C33.2891 41.7656 32.625 42 32 42Z" fill="#9E5CF2"/>
</svg>
